<svg xmlns="http://www.w3.org/2000/svg" version="1.1" xmlns:xlink="http://www.w3.org/1999/xlink" xmlns:svgjs="http://svgjs.dev/svgjs" viewBox="0 0 6.107568603390421 1.8306083060156093"><g transform="matrix(1,0,0,1,0.26845415300780484,0.5348041530078047)"><g><path d=" M 0.168 0.020999999999999908 L 0.168 0.7609999999999999 L 0.077 0.7609999999999999 L 0.077 0.020999999999999908 L 0.168 0.020999999999999908 M 0.4214716796875 0.7349999999999999 Q 0.35897167968750004 0.7 0.3234716796875 0.6355 Q 0.28797167968750004 0.571 0.28797167968750004 0.4859999999999999 Q 0.28797167968750004 0.4019999999999999 0.3244716796875 0.3374999999999999 Q 0.36097167968750005 0.2729999999999999 0.42397167968750005 0.23849999999999993 Q 0.4869716796875 0.20399999999999985 0.5649716796875001 0.20399999999999985 Q 0.6429716796875 0.20399999999999985 0.7059716796875001 0.23849999999999993 Q 0.7689716796875 0.2729999999999999 0.8054716796875 0.3369999999999999 Q 0.8419716796875 0.4009999999999999 0.8419716796875 0.4859999999999999 Q 0.8419716796875 0.571 0.8044716796875 0.6355 Q 0.7669716796875 0.7 0.7029716796875001 0.7349999999999999 Q 0.6389716796875 0.7699999999999999 0.5609716796875001 0.7699999999999999 Q 0.48397167968750004 0.7699999999999999 0.4214716796875 0.7349999999999999 M 0.6529716796875 0.6669999999999999 Q 0.6959716796875001 0.6439999999999999 0.7224716796875 0.5979999999999999 Q 0.7489716796875 0.5519999999999999 0.7489716796875 0.4859999999999999 Q 0.7489716796875 0.4199999999999999 0.7229716796875001 0.3739999999999999 Q 0.6969716796875001 0.3279999999999999 0.6549716796875 0.3054999999999999 Q 0.6129716796875 0.28299999999999986 0.5639716796875001 0.28299999999999986 Q 0.5139716796875 0.28299999999999986 0.47247167968750003 0.3054999999999999 Q 0.43097167968750005 0.3279999999999999 0.40597167968750003 0.3739999999999999 Q 0.3809716796875 0.4199999999999999 0.3809716796875 0.4859999999999999 Q 0.3809716796875 0.5529999999999999 0.40547167968750003 0.5989999999999999 Q 0.42997167968750005 0.6449999999999999 0.47097167968750003 0.6674999999999999 Q 0.5119716796875 0.69 0.5609716796875001 0.69 Q 0.6099716796875 0.69 0.6529716796875 0.6669999999999999 M 1.311486328125 0.23499999999999988 Q 1.364986328125 0.2659999999999999 1.390986328125 0.3129999999999999 L 1.390986328125 0.21299999999999986 L 1.482986328125 0.21299999999999986 L 1.482986328125 0.7729999999999999 Q 1.482986328125 0.8479999999999999 1.450986328125 0.9064999999999999 Q 1.418986328125 0.9649999999999999 1.359486328125 0.9979999999999999 Q 1.2999863281250001 1.031 1.220986328125 1.031 Q 1.112986328125 1.031 1.040986328125 0.9799999999999999 Q 0.968986328125 0.9289999999999999 0.9559863281250001 0.8409999999999999 L 1.045986328125 0.8409999999999999 Q 1.060986328125 0.8909999999999999 1.107986328125 0.9214999999999999 Q 1.1549863281250001 0.952 1.220986328125 0.952 Q 1.2959863281250001 0.952 1.343486328125 0.9049999999999999 Q 1.390986328125 0.8579999999999999 1.390986328125 0.7729999999999999 L 1.390986328125 0.6579999999999999 Q 1.363986328125 0.7059999999999998 1.310986328125 0.7379999999999999 Q 1.2579863281249999 0.7699999999999999 1.186986328125 0.7699999999999999 Q 1.113986328125 0.7699999999999999 1.054486328125 0.7339999999999999 Q 0.994986328125 0.698 0.960986328125 0.6329999999999999 Q 0.926986328125 0.5679999999999998 0.926986328125 0.4849999999999999 Q 0.926986328125 0.4009999999999999 0.960986328125 0.3374999999999999 Q 0.994986328125 0.2739999999999999 1.054486328125 0.23899999999999988 Q 1.113986328125 0.20399999999999985 1.186986328125 0.20399999999999985 Q 1.2579863281249999 0.20399999999999985 1.311486328125 0.23499999999999988 M 1.365986328125 0.3779999999999999 Q 1.340986328125 0.3319999999999999 1.298486328125 0.3074999999999999 Q 1.255986328125 0.28299999999999986 1.204986328125 0.28299999999999986 Q 1.153986328125 0.28299999999999986 1.111986328125 0.3069999999999999 Q 1.069986328125 0.3309999999999999 1.044986328125 0.3769999999999999 Q 1.019986328125 0.4229999999999999 1.019986328125 0.4849999999999999 Q 1.019986328125 0.5479999999999999 1.044986328125 0.5944999999999999 Q 1.069986328125 0.6409999999999999 1.111986328125 0.6654999999999999 Q 1.153986328125 0.69 1.204986328125 0.69 Q 1.255986328125 0.69 1.298486328125 0.6654999999999999 Q 1.340986328125 0.6409999999999999 1.365986328125 0.5944999999999999 Q 1.390986328125 0.5479999999999999 1.390986328125 0.4859999999999999 Q 1.390986328125 0.4239999999999999 1.365986328125 0.3779999999999999 M 1.63901171875 0.10599999999999987 Q 1.62101171875 0.08799999999999986 1.62101171875 0.06199999999999983 Q 1.62101171875 0.03599999999999992 1.63901171875 0.017999999999999905 Q 1.65701171875 -1.1102230246251565e-16 1.68301171875 -1.1102230246251565e-16 Q 1.70801171875 -1.1102230246251565e-16 1.72551171875 0.017999999999999905 Q 1.7430117187499998 0.03599999999999992 1.7430117187499998 0.06199999999999983 Q 1.7430117187499998 0.08799999999999986 1.72551171875 0.10599999999999987 Q 1.70801171875 0.12399999999999989 1.68301171875 0.12399999999999989 Q 1.65701171875 0.12399999999999989 1.63901171875 0.10599999999999987 M 1.7270117187499998 0.21299999999999986 L 1.7270117187499998 0.7609999999999999 L 1.6360117187499998 0.7609999999999999 L 1.6360117187499998 0.21299999999999986 L 1.7270117187499998 0.21299999999999986 M 2.3099833984375 0.2634999999999999 Q 2.3719833984375 0.3239999999999999 2.3719833984375 0.4379999999999999 L 2.3719833984375 0.7609999999999999 L 2.2819833984375 0.7609999999999999 L 2.2819833984375 0.4509999999999999 Q 2.2819833984375 0.3689999999999999 2.2409833984375 0.3254999999999999 Q 2.1999833984375 0.28199999999999986 2.1289833984375 0.28199999999999986 Q 2.0569833984375 0.28199999999999986 2.0144833984375 0.3269999999999999 Q 1.9719833984375 0.3719999999999999 1.9719833984375 0.4579999999999999 L 1.9719833984375 0.7609999999999999 L 1.8809833984375 0.7609999999999999 L 1.8809833984375 0.21299999999999986 L 1.9719833984375 0.21299999999999986 L 1.9719833984375 0.29099999999999987 Q 1.9989833984375 0.2489999999999999 2.0454833984375 0.22599999999999987 Q 2.0919833984375 0.20299999999999985 2.1479833984375 0.20299999999999985 Q 2.2479833984375 0.20299999999999985 2.3099833984375 0.2634999999999999" fill="#ffffff" fill-rule="nonzero"></path></g><g><path d=" M 3.9105924262810614 0.6859999999999999 L 4.1795924262810615 0.6859999999999999 L 4.1795924262810615 0.7609999999999999 L 3.8065924262810613 0.7609999999999999 L 3.8065924262810613 0.6859999999999999 L 4.072592426281061 0.28699999999999987 L 3.8085924262810615 0.28699999999999987 L 3.8085924262810615 0.21299999999999986 L 4.177592426281062 0.21299999999999986 L 4.177592426281062 0.28699999999999987 L 3.9105924262810614 0.6859999999999999 M 4.2966095161248115 0.3374999999999999 Q 4.330609516124811 0.2739999999999999 4.390109516124811 0.23899999999999988 Q 4.449609516124812 0.20399999999999985 4.522609516124811 0.20399999999999985 Q 4.5946095161248115 0.20399999999999985 4.647609516124811 0.23499999999999988 Q 4.700609516124811 0.2659999999999999 4.726609516124811 0.3129999999999999 L 4.726609516124811 0.21299999999999986 L 4.818609516124812 0.21299999999999986 L 4.818609516124812 0.7609999999999999 L 4.726609516124811 0.7609999999999999 L 4.726609516124811 0.6589999999999999 Q 4.699609516124811 0.7069999999999999 4.646109516124811 0.7384999999999999 Q 4.592609516124812 0.7699999999999999 4.521609516124811 0.7699999999999999 Q 4.448609516124812 0.7699999999999999 4.389609516124811 0.7339999999999999 Q 4.330609516124811 0.698 4.2966095161248115 0.6329999999999999 Q 4.262609516124812 0.5679999999999998 4.262609516124812 0.4849999999999999 Q 4.262609516124812 0.4009999999999999 4.2966095161248115 0.3374999999999999 M 4.701609516124812 0.3779999999999999 Q 4.676609516124811 0.3319999999999999 4.634109516124812 0.3074999999999999 Q 4.591609516124811 0.28299999999999986 4.540609516124811 0.28299999999999986 Q 4.489609516124812 0.28299999999999986 4.447609516124811 0.3069999999999999 Q 4.405609516124811 0.3309999999999999 4.380609516124811 0.3769999999999999 Q 4.355609516124812 0.4229999999999999 4.355609516124812 0.4849999999999999 Q 4.355609516124812 0.5479999999999999 4.380609516124811 0.5944999999999999 Q 4.405609516124811 0.6409999999999999 4.447609516124811 0.6654999999999999 Q 4.489609516124812 0.69 4.540609516124811 0.69 Q 4.591609516124811 0.69 4.634109516124812 0.6654999999999999 Q 4.676609516124811 0.6409999999999999 4.701609516124812 0.5944999999999999 Q 4.726609516124811 0.5479999999999999 4.726609516124811 0.4859999999999999 Q 4.726609516124811 0.4239999999999999 4.701609516124812 0.3779999999999999 M 5.143134906749811 0.23549999999999993 Q 5.196634906749811 0.20399999999999985 5.267634906749811 0.20399999999999985 Q 5.340634906749811 0.20399999999999985 5.400134906749811 0.23899999999999988 Q 5.459634906749812 0.2739999999999999 5.493634906749811 0.3374999999999999 Q 5.527634906749811 0.4009999999999999 5.527634906749811 0.4849999999999999 Q 5.527634906749811 0.5679999999999998 5.493634906749811 0.6329999999999999 Q 5.459634906749812 0.698 5.400134906749811 0.7339999999999999 Q 5.340634906749811 0.7699999999999999 5.267634906749811 0.7699999999999999 Q 5.197634906749811 0.7699999999999999 5.144134906749811 0.7384999999999999 Q 5.090634906749811 0.7069999999999999 5.062634906749811 0.6599999999999999 L 5.062634906749811 1.021 L 4.971634906749811 1.021 L 4.971634906749811 0.21299999999999986 L 5.062634906749811 0.21299999999999986 L 5.062634906749811 0.3139999999999999 Q 5.0896349067498114 0.2669999999999999 5.143134906749811 0.23549999999999993 M 5.409634906749811 0.3769999999999999 Q 5.384634906749811 0.3309999999999999 5.342134906749811 0.3069999999999999 Q 5.299634906749811 0.28299999999999986 5.248634906749811 0.28299999999999986 Q 5.198634906749811 0.28299999999999986 5.156134906749811 0.3074999999999999 Q 5.1136349067498115 0.3319999999999999 5.088134906749811 0.3784999999999999 Q 5.062634906749811 0.4249999999999999 5.062634906749811 0.4859999999999999 Q 5.062634906749811 0.5479999999999999 5.088134906749811 0.5944999999999999 Q 5.1136349067498115 0.6409999999999999 5.156134906749811 0.6654999999999999 Q 5.198634906749811 0.69 5.248634906749811 0.69 Q 5.299634906749811 0.69 5.342134906749811 0.6654999999999999 Q 5.384634906749811 0.6409999999999999 5.409634906749811 0.5944999999999999 Q 5.434634906749811 0.5479999999999999 5.434634906749811 0.4849999999999999 Q 5.434634906749811 0.4229999999999999 5.409634906749811 0.3769999999999999" fill="#ffffff" fill-rule="nonzero"></path></g><g></g><g clip-path="url(#SvgjsClipPath1001)"><g clip-path="url(#SvgjsClipPath1000874296a7-dc36-473f-80e8-92ab88622301)"><path d=" M 3.6655924262810613 0.9371424514032423 L 3.657362657019064 0.9229462993721007 C 3.611826555461646 0.8443898148930455 3.5660727351406836 0.7659524092479291 3.5201011960561757 0.6876340824367515 L 3.3821865788026524 0.4527004295555659 L 3.312418823186695 0.3342418719308259 L 3.3113951006740265 0.3325303358549587 L 3.34391961800359 0.2778091684199897 C 3.3704270996271846 0.23347451897813376 3.3965186939800076 0.18889993457237114 3.4226156202209173 0.14432535016660863 L 3.431066662838517 0.1298865972275171 L 3.414193902987795 0.12974263624917315 C 3.3485317011986844 0.12918012205601426 3.282872165353617 0.12901483352532306 3.217209963564506 0.1288948660433697 L 3.2514140256414157 0.06799137437174019 L 3.251715277318321 0.06745818556305877 L 3.2514140256414157 0.06692499675437741 L 3.1379194558254997 -0.13345535538021172 C 3.142726071636729 -0.13637875256551166 3.1471745985430624 -0.13985382869266352 3.1511745296093183 -0.14380988204480388 C 3.1472074146937823 -0.13983522742080412 3.142693877222154 -0.1364464835951482 3.137770162959069 -0.13374594328094305 L 3.1051043505952047 -0.191388985387486 L 3.073864818294563 -0.1362519306817455 C 3.0691343351324467 -0.13941088775742355 3.0648868485112377 -0.14323901364880076 3.0612549029692486 -0.14761685013878895 C 3.0411140509357204 -0.17191177129811047 3.042775716692881 -0.2075446345628032 3.0650901321127906 -0.22985974108824522 C 3.0874045475327008 -0.25217484761368725 3.123037359317221 -0.2538376169475863 3.147332904242769 -0.23369751735635272 C 3.160219706074595 -0.22298352805475205 3.1680893266215633 -0.20740741291107176 3.1690683460286655 -0.19067717832789638 C 3.1700100423191087 -0.173228010221368 3.1635069742634263 -0.15619814919414515 3.1511745296093183 -0.14381787987693403 C 3.169606077230001 -0.1618569602840753 3.176924525281602 -0.18840781491854486 3.17033829260237 -0.2133427684722172 C 3.1637520599231377 -0.23827772202588954 3.1442768523720477 -0.2577513928289681 3.1193413791696205 -0.26433565784488366 C 3.094405905967193 -0.27091992286079924 3.0678556289216456 -0.26359937967675867 3.0498180030230335 -0.24516640863108902 C 3.0426929057575265 -0.23799724251664361 3.0371279897419208 -0.22943157420164284 3.0334731000929063 -0.22000789469345863 C 3.029949732604128 -0.21064370082986866 3.0283494193666765 -0.20066554378842158 3.028767708856293 -0.1906691804957661 C 3.030020904892724 -0.16417392094589445 3.0459557307880067 -0.1405930939078027 3.070071179920795 -0.12954708141257731 L 2.9587760139406893 0.06693299458650775 L 2.9584774282078277 0.06746618339518912 L 2.9587760139406893 0.06799937220387048 L 2.992985407905686 0.1289081957635868 C 2.926798015140024 0.12903882702171376 2.860607956430319 0.12920944744049173 2.794420563664657 0.12977462757769398 L 2.7775984567507597 0.129918588556038 L 2.7860228399279254 0.144314686390435 C 2.8120975499684735 0.18889993457237125 2.838332216651626 0.23339276336080256 2.8647268399773824 0.27779317275572923 L 2.8972300297545988 0.33247168508600367 L 2.89618231374554 0.334223210322522 L 2.8264145581295828 0.45268976577939224 L 2.688491943043929 0.6876154208284476 C 2.642362224612846 0.7658377736540625 2.5966190680680565 0.844275179299179 2.5512624734095612 0.9229276377637967 L 2.542998046875 0.937161113011546 L 2.559481578895385 0.9371984362281538 L 2.9413727312253295 0.9381021912588687 C 2.9267224800587943 0.9625915532416038 2.9121424320854024 0.9871182384409471 2.897632587305153 1.0116822468568978 L 2.889173546855423 1.0260383555306436 L 2.906051638594232 1.026264960774333 C 2.9721377254862444 1.0271500541967442 3.0382264783223003 1.0270647439873553 3.104315231158356 1.0273313383916958 C 3.1704013180503687 1.0270407504909647 3.2364874049423813 1.0271100650360931 3.302576157778437 1.0262276375577255 L 3.3194169263006383 1.0260036982580794 L 3.3109738815151686 1.0116849128009413 C 3.2964711459190355 0.9870942449445563 3.281873324985354 0.9625586732650684 3.2671804187141245 0.9380781977624779 L 3.649146217477284 0.9371637789555893 Z M 3.3974544403392435 0.14927067636712837 C 3.374687278208549 0.18925983701823113 3.351941443630202 0.22928632088594159 3.3295368498894105 0.26950475272477736 L 3.3025255048416122 0.3176756956450957 L 3.2423338202295726 0.21676971360214647 L 3.204082855094771 0.15226719747191764 L 3.2053251850189985 0.15005979580397677 C 3.2693736020138333 0.14994604885812474 3.333416687120582 0.14968300904584192 3.3974544403392435 0.14927067636712837 Z M 3.105152337587986 0.6747015878821848 C 3.104869747519385 0.6752107831944755 3.1045978212269576 0.6757093147305925 3.104315231158356 0.6762185100428834 L 3.105189660804594 0.6747709024273135 C 3.11762895571113 0.6975353986139645 3.129607042298157 0.7199000031941046 3.141374519305755 0.7420673279150325 C 3.140574736092733 0.7424032368645017 3.139828271760579 0.74281645819123 3.1390284885475572 0.7431337055323952 C 3.1279639163010047 0.7473763327362408 3.116157821558026 0.7493456774702667 3.1043152311583566 0.748924135994675 C 3.0918865000004936 0.7483907867313697 3.079726683205428 0.7451335466812581 3.0686955527943978 0.7393827222633218 C 3.080004487426529 0.7180924931326748 3.0915027040857432 0.6966263116951628 3.1034381355680756 0.6747789002594435 L 3.1043152311583566 0.6762265078750135 C 3.104029975145712 0.6757173125627228 3.1037580488532845 0.6752187810266057 3.10347279284064 0.6747122516583585 C 3.1037580488532845 0.6741790628496771 3.104029975145712 0.6736805313135601 3.1043152311583566 0.6731606722250957 C 3.1040193113695382 0.6736378762088654 3.1037127278045467 0.6741310758568957 3.1034194739597716 0.674610945784709 C 3.088209374544121 0.6473205652603674 3.0732383214443626 0.6202381283714118 3.0585063146604963 0.5933636351178417 C 3.0719280243218736 0.5837776331844692 3.0878383598990258 0.5782831368034634 3.1043152311583566 0.5775439231642654 C 3.1211021934106653 0.5768118837884988 3.1377376437466467 0.5809971533199473 3.152179590513683 0.5895859924083342 C 3.1367171150619235 0.6177454706908263 3.121060025694995 0.6460871218162845 3.1052083224128975 0.674610945784709 C 3.104915068568123 0.6741310758568957 3.104605819059088 0.6736378762088654 3.1043152311583566 0.6731606722250957 C 3.1045978212269576 0.6736618697052562 3.1048670815753416 0.6741950585139375 3.105152337587986 0.6747015878821848 Z M 3.0655230793827433 0.74535976880864 C 3.077866265107753 0.7501929422558471 3.0910746470007253 0.7524247440200758 3.104320563046443 0.7519153252113775 C 3.117279603973286 0.7514124712132944 3.12999858110764 0.748262439926435 3.1416944325909637 0.7426591674926688 C 3.145141498239089 0.7491560731264515 3.1486578784323425 0.7557222933053624 3.1520569570876864 0.7621658800582769 C 3.1673834693932323 0.7914352797108406 3.1823634089731354 0.8199635469193376 3.1978498779212856 0.8480839246891929 L 3.235972877742004 0.917214519678776 L 3.1043072333262263 0.9168999382816541 L 2.972710903455577 0.9172091877906892 C 2.9854541159830617 0.8942003134000591 2.9981520074618087 0.8711638909209805 3.0108045778918173 0.8480999203534534 C 3.0262830490078376 0.8199795425835978 3.041265654531784 0.7914619391512749 3.0565788371171134 0.7621845416665807 C 3.059514041508904 0.7566207164479906 3.062553217718388 0.750955585355751 3.0655230793827433 0.74535976880864 Z M 3.0646139924639417 0.7371406633228166 C 3.056754595578274 0.7325789404557831 3.0496914099407 0.7267664897558161 3.043702327387458 0.7199319945226254 C 3.0138863331843613 0.6858889655237348 3.015563658736346 0.634560938642817 3.0475386208659208 0.6025371485712048 C 3.0500576734296683 0.6000624256468301 3.052728816234527 0.5977474352159526 3.055536452996141 0.595605694058347 L 3.103390148575294 0.674669596553664 C 3.0908495477951083 0.695154710583202 3.077831743031153 0.716050379995425 3.0646086605758547 0.7371406633228166 Z M 3.104320563046443 0.5588956445806345 C 3.091056195949615 0.558465722009075 3.077841422815136 0.5607162412158663 3.0654670945578317 0.5655125176963706 C 3.059407295269459 0.5678931195898157 3.053607810407716 0.5708893414361321 3.0481597858280347 0.574454094017957 C 3.041662880194252 0.5625879770807529 3.035096660015341 0.5506658753186376 3.02867173487073 0.5388664069825189 L 2.991903034624063 0.47128472548215516 L 2.9548304167564474 0.40468944327785195 L 2.911620795700909 0.3275983393746561 L 2.9699409875944776 0.2231173263694981 L 3.007930690213025 0.15551698326083058 L 3.096882579165338 0.3138927210475013 L 3.099884432158214 0.31922460913431505 L 3.10384869095076 0.3262866949052998 L 3.1051043505952047 0.3285207560136747 L 3.106357344295606 0.3262866949052998 L 3.1103242690321955 0.31922460913431505 L 3.1133261220250716 0.3138927210475013 L 3.2014862255964927 0.15690594010744563 L 3.2386894747222352 0.22309599881715098 L 3.297004334727717 0.32753702266165785 L 3.253778718007918 0.40466811572550476 L 3.216722095804563 0.47125273415363433 L 3.179961393390026 0.5388370815980413 C 3.1728779800666937 0.5518442225858233 3.1656559376531046 0.5649793288876889 3.158489880064427 0.5780637822527297 C 3.1427998796160224 0.5663161952515358 3.1239020384490144 0.559629738975231 3.104315231158356 0.5588956445806343 Z M 3.019466230088846 0.15008378930036742 C 3.0477501190933642 0.15013355358917774 3.0760331194498676 0.1501939816541616 3.104315231158356 0.15026507349531915 C 3.1331287543794977 0.15018509517401696 3.161943166248653 0.150126444405062 3.1907584667658235 0.1500891211884543 L 3.167474111490708 0.1907154424659313 L 3.1051043505952047 0.29954194426184244 L 3.042750585363962 0.1907047786897576 Z M 3.1051043505952047 -0.1899493756040463 L 3.135229518285702 -0.13234099077006764 C 3.125650822171846 -0.12755820507171892 3.11499623631 -0.12533911201635517 3.104304567382183 -0.1259000699611967 C 3.0943573411268726 -0.1264835371846057 3.0847093001729062 -0.12952064595652063 3.076221512828935 -0.13474034040913382 Z M 2.9713326103851356 0.06717826143850114 C 2.9929267571367313 0.02660525904189226 3.014254309483986 -0.014167689157972119 3.0358031351868435 -0.05579907133981349 L 3.0697192753070657 -0.12229038172642379 L 3.0728757530544595 -0.1283260790406969 C 3.0828155481091235 -0.12418067733143784 3.093560886250548 -0.1223255506922501 3.104315231158356 -0.12289821696832057 C 3.1152543695107666 -0.1234613619424974 3.125913488223938 -0.126555974233282 3.1354534575853483 -0.1319384332195132 L 3.140494757771431 -0.12230637739068423 L 3.174418895723783 -0.05582839672429096 C 3.1959543917064233 -0.014173021046058887 3.2173245991583728 0.026594595265718723 3.2389214118540117 0.0671782614385012 C 3.2272099196713255 0.08683959875862673 3.2155650760897245 0.10653825929535998 3.204304128450374 0.12645552724365255 L 3.2029205034918453 0.12885487688271868 C 3.1986816524628288 0.12885487688271868 3.1944419127857975 0.1288468790505885 3.1902012844607515 0.1288308833863281 L 3.104312565214313 -0.015985862995575584 L 3.1857118346916544 0.12883088338632798 C 3.1585778562178595 0.12878289639354668 3.1314456550400935 0.1287278002166496 3.104315231158356 0.12866559485563678 C 3.0771848072766192 0.1287420185848811 3.0500543833948823 0.1288006693538361 3.022923959513145 0.12884154716250162 L 3.104312565214313 -0.015985862995575584 L 3.0184051843595707 0.12884954499463186 L 3.0073121911949547 0.1288735384910225 L 3.005917902460253 0.12644486346747885 C 2.994654288876859 0.10654092523940334 2.983057432288039 0.08682360309436621 2.9713326103851356 0.06717826143850114 Z M 2.8790589551547376 0.26950475272477736 C 2.8566383657496863 0.22928632088594159 2.8339947256930027 0.1891958543611894 2.8111280349846877 0.1492333531505206 C 2.8757078634921753 0.14972210955847853 2.940285914703634 0.14998870396281921 3.0048621886190636 0.1500331363635427 L 3.0053340607147465 0.1508702427931724 L 2.9662673167026625 0.21671906066532165 L 2.9060543045382756 0.3176783615891391 Z M 2.575917123922988 0.9181476000939683 C 2.6184247130470957 0.8441800939616306 2.6607483520322086 0.7701068387155714 2.7028880408783262 0.6959278343557901 L 2.8373769200360717 0.4590160509943968 L 2.9032417335724814 0.342583610842646 L 2.9439080440106093 0.4109944009405092 L 2.9843077600443966 0.47858674621704655 L 3.025000729922959 0.5451953581415667 L 3.0443554836780926 0.5771680250541451 C 3.040061984468907 0.5802101526633922 3.036014174889396 0.5835849615310488 3.0322494317769824 0.5872612892024835 C 3.0228238481394625 0.596739902903926 3.0154314704961576 0.6080421035491509 3.01052465376726 0.6204762860392893 C 3.0057566670343405 0.6328532484339345 3.0035141084710113 0.6460593259234825 3.0039291082038715 0.6593164248076837 C 3.005252782885602 0.695875413668853 3.027270265576004 0.7284931021133855 3.0606817249999168 0.7433923021046056 C 3.0580717657814214 0.7475485088682772 3.0555311211080545 0.7516567286391669 3.052899834337212 0.755818267290925 C 3.0351713064485564 0.7837733565300893 3.0171095355544746 0.8124882398216244 2.9995462961965105 0.8416030147196707 C 2.984227781723095 0.8667713037854605 2.968992800163039 0.8919884684920458 2.9538413515163433 0.9172545088394268 Z M 3.285959328555882 1.0067262568802045 C 3.2254130733860693 1.0060571049253093 3.1648641522722127 1.0060197817087018 3.1043152311583566 1.005753187304361 C 3.0437823057087607 1.0060197817087018 2.9832493802591644 1.0060331114289185 2.9227164548095685 1.0066995974397703 C 2.9355840780590787 0.9838808937242367 2.948393939187649 0.9610301986801819 2.9611460381952783 0.9381475123076066 L 3.1043072333262263 0.9384860872011194 L 3.247545740834433 0.9381421804195196 C 3.260223193408847 0.9610799629689921 3.27302772264933 0.9839413217892206 3.285959328555882 1.0067262568802045 Z M 3.2547038005909803 0.9172598407275139 L 3.209044176959551 0.8416163444398879 C 3.191488935433717 0.8125042354858849 3.173421832651549 0.7838000159705234 3.1557066344831104 0.755836928899229 C 3.1524541827501538 0.7506729952871498 3.1493083687789336 0.7456050356606334 3.1460879083744984 0.7404730933770753 C 3.154412542303037 0.7360295189704815 3.1620409083478522 0.7303897555894155 3.168729771135153 0.7237336307285238 C 3.1620152061792246 0.7303607340244396 3.1542841167352433 0.7358714977806089 3.145829311802288 0.740057206106304 C 3.1319664027765723 0.7179671937626347 3.118370088155197 0.696103786662655 3.105250977517592 0.6746695965536641 L 3.1554800292394205 0.591700086034756 C 3.158776668502207 0.5938246188953734 3.161921216053602 0.5961763485088811 3.1648908117126466 0.5987381783093499 C 3.182422095869762 0.6141257616383559 3.19290106620105 0.6360112067521289 3.1938962829049133 0.6593164248076842 C 3.1948815225991263 0.6833628189279499 3.185754953851753 0.7067235478096017 3.168729771135153 0.7237336307285236 C 3.204902399370978 0.6874862955322745 3.2065861024162654 0.6293371980619076 3.1725713965017017 0.5910575935202947 C 3.1693126441167916 0.5874195666376709 3.1657690426767884 0.5840471278332598 3.1619742689291597 0.5809723272040869 L 3.183624400505667 0.5452113538058273 L 3.2243413638806198 0.47860807376939396 L 3.264741079914407 0.4110077306607264 L 3.3054207200727523 0.3425862767866895 L 3.371269537944902 0.45900538721822337 L 3.505771746822864 0.6959091727474864 C 3.5477639200985798 0.7701841510928302 3.5900857817876637 0.8442689587630776 3.632737331890115 0.9181635957582288 Z" fill="#c84449" transform="matrix(1,0,0,1,0,0)" fill-rule="nonzero"></path></g></g></g><defs><clipPath id="SvgjsClipPath1001"><path d=" M 2.542998046875 -0.26634999999999986 h 1.122594379406061 v 1.2936999999999996 h -1.122594379406061 Z"></path></clipPath><clipPath id="SvgjsClipPath1000874296a7-dc36-473f-80e8-92ab88622301"><path d=" M 2.542998046875 -0.26634999999999986 L 3.6655924262810613 -0.26634999999999986 L 3.6655924262810613 1.0273499999999998 L 2.542998046875 1.0273499999999998 Z"></path></clipPath></defs></svg>